<svg width="1059" height="437" viewBox="0 0 1059 437" fill="none" xmlns="http://www.w3.org/2000/svg">
    <path d="M1.5 -6C67.5 63.3333 187.766 228.405 416.5 167C564 127.403 722.5 -1.5 690 204.5C644.97 489.92 1059.5 473 1115.5 353.5"
          stroke="white" stroke-width="3.5" stroke-dasharray="7 9" stroke-linecap="round"/>
    <circle cx="694" cy="302" r="6" fill="white"/>
    <circle cx="665" cy="94" r="6" fill="white"/>
    <circle cx="320.98" cy="179.98" r="6" fill="white"/>
    <path d="M668.138 79.529C666.25 77.0544 664.572 74.4262 663.122 71.6719C660.946 67.5361 658.591 61.5679 659.665 56.5976C660.783 51.4059 664.921 47.4002 670.146 46.4496C675.371 45.499 680.654 47.791 683.529 52.2559C685.423 55.1791 686.069 58.7385 685.323 62.1406C684.249 67.1109 679.64 71.5746 675.951 74.4434C673.493 76.3535 670.88 78.0546 668.138 79.529ZM673.681 53.8709C671.717 53.4466 669.676 54.1024 668.326 55.5913C666.976 57.0803 666.523 59.1762 667.138 61.0895C667.753 63.0028 669.341 64.4429 671.306 64.8672C674.342 65.5232 677.336 63.5934 677.992 60.5569C678.648 57.5203 676.718 54.5269 673.681 53.8709Z"
          fill="white"/>
    <path d="M674.589 303.521C677.802 305.195 679.05 309.156 677.377 312.369L665.886 334.437C664.212 337.65 660.251 338.898 657.038 337.225L634.97 325.734C631.757 324.06 630.509 320.099 632.182 316.886L643.673 294.818C645.347 291.605 649.308 290.357 652.521 292.03L674.589 303.521ZM643.281 307.002L646.323 308.586L640.29 320.172L646.984 323.658L650.631 316.655L655.499 319.19L651.852 326.193L658.546 329.679L664.58 318.094L667.622 319.678L660.143 304.329L643.281 307.002Z"
          fill="white"/>
    <path d="M317.466 118.652C320.642 115.723 325.592 115.923 328.521 119.099L343.677 135.529C346.607 138.705 346.407 143.654 343.231 146.583L326.801 161.74C323.625 164.669 318.676 164.47 315.746 161.294L300.59 144.864C297.661 141.688 297.86 136.739 301.035 133.809L317.466 118.652ZM322.314 125.378C321.545 125.352 320.881 125.965 320.845 126.733C320.81 127.501 321.417 128.159 322.185 128.186L323.563 128.234L323.355 128.426C320.639 130.931 319.649 134.559 320.359 137.887C317.099 136.911 313.404 137.605 310.702 140.098L310.106 140.647L310.169 139.27C310.204 138.502 309.597 137.844 308.829 137.817C308.061 137.79 307.395 138.404 307.36 139.172L307.141 143.941C307.106 144.709 307.713 145.367 308.481 145.393L313.251 145.559C313.649 145.573 314.002 145.427 314.265 145.184C314.528 144.941 314.703 144.601 314.721 144.204C314.756 143.436 314.149 142.778 313.381 142.751L312.003 142.704L312.585 142.167C315.496 139.482 320.027 139.64 322.682 142.518L327.904 148.179C328.423 148.74 329.324 148.772 329.892 148.248C330.46 147.724 330.501 146.823 329.983 146.261L324.761 140.601C322.106 137.722 322.328 133.179 325.239 130.495L325.446 130.303L325.382 131.68C325.347 132.448 325.954 133.106 326.722 133.133C327.12 133.147 327.473 133 327.736 132.757C327.999 132.514 328.174 132.175 328.192 131.778L328.41 127.01C328.419 126.824 328.387 126.651 328.329 126.476C328.212 126.127 327.947 125.839 327.61 125.668C327.441 125.596 327.27 125.55 327.084 125.544L322.314 125.378Z"
          fill="white"/>
</svg>
