<?xml version="1.0" standalone="no"?>
<!DOCTYPE svg PUBLIC "-//W3C//DTD SVG 20010904//EN"
 "http://www.w3.org/TR/2001/REC-SVG-20010904/DTD/svg10.dtd">
<svg version="1.0" xmlns="http://www.w3.org/2000/svg"
 width="400.000000pt" height="400.000000pt" viewBox="0 0 400.000000 400.000000"
 preserveAspectRatio="xMidYMid meet">
<metadata>
Created by potrace 1.14, written by Peter Selinger 2001-2017
</metadata>
<g transform="translate(0.000000,400.000000) scale(0.100000,-0.100000)"
fill="#000000" stroke="none">
<path d="M2137 3684 c-1 -1 -43 -4 -92 -5 -50 -2 -95 -7 -102 -12 -6 -4 -17
-7 -25 -6 -32 4 -79 -2 -74 -9 3 -5 -1 -9 -9 -9 -8 0 -12 3 -10 7 2 4 -2 7
-10 7 -8 0 -12 -4 -9 -9 3 -4 -13 -8 -35 -8 -22 0 -42 -4 -45 -8 -2 -4 -18 -9
-34 -10 -17 -1 -43 -9 -58 -17 -15 -7 -32 -11 -37 -8 -6 3 -7 1 -3 -5 4 -8 0
-12 -11 -12 -27 0 -92 -25 -113 -43 -14 -11 -20 -12 -24 -4 -3 9 -5 9 -5 0 -1
-7 -8 -13 -16 -13 -9 0 -27 -8 -42 -17 -14 -10 -33 -18 -42 -20 -9 -1 -17 -7
-19 -12 -2 -6 -12 -11 -23 -11 -10 0 -19 -4 -19 -10 0 -5 -7 -10 -16 -10 -8 0
-12 -4 -9 -10 5 -9 -9 -15 -18 -7 -2 1 -11 -6 -21 -16 -10 -9 -22 -14 -28 -11
-7 4 -8 2 -4 -4 4 -7 1 -12 -8 -12 -9 0 -16 -4 -16 -10 0 -5 -6 -10 -12 -10
-7 0 -31 -16 -52 -35 -21 -20 -52 -43 -67 -52 -16 -10 -29 -23 -29 -31 0 -7
-4 -10 -10 -7 -5 3 -10 -1 -10 -10 0 -9 -3 -14 -7 -12 -10 5 -113 -100 -105
-107 3 -3 -2 -6 -11 -6 -10 0 -17 -7 -17 -15 0 -8 -9 -19 -20 -25 -11 -6 -20
-18 -20 -26 0 -8 -4 -12 -10 -9 -5 3 -10 -3 -10 -15 0 -12 -4 -18 -10 -15 -5
3 -10 -1 -10 -10 0 -10 -5 -13 -12 -9 -6 4 -8 3 -5 -3 3 -5 -5 -21 -19 -36
-13 -14 -24 -33 -24 -42 0 -8 -3 -15 -8 -15 -4 0 -13 -14 -20 -30 -8 -17 -18
-28 -23 -24 -5 3 -9 -7 -9 -21 0 -15 -4 -24 -10 -20 -6 4 -10 -6 -10 -22 0
-22 -2 -25 -10 -13 -8 13 -10 13 -10 -2 0 -14 -13 -44 -51 -120 -5 -10 -9 -27
-9 -37 0 -11 -4 -23 -10 -26 -5 -3 -10 -15 -10 -26 0 -10 -4 -19 -10 -19 -5 0
-10 -11 -10 -25 0 -25 -3 -34 -29 -84 -10 -19 -10 -22 1 -15 10 6 11 5 1 -7
-7 -9 -14 -32 -15 -51 -2 -20 -6 -34 -9 -32 -4 2 -9 -15 -11 -39 -3 -23 -8
-51 -12 -62 -6 -16 -6 -17 3 -5 7 9 11 10 11 3 0 -6 -5 -15 -10 -18 -6 -3 -10
-41 -10 -84 0 -43 -3 -81 -7 -85 -10 -10 -11 -176 -1 -170 5 3 8 -36 8 -86 0
-65 3 -89 11 -84 8 5 9 2 2 -11 -10 -17 -3 -56 19 -99 5 -10 6 -16 0 -12 -5 3
-9 -1 -9 -9 0 -8 4 -12 9 -9 7 4 13 -44 9 -69 -1 -5 3 -6 9 -2 6 4 10 -5 10
-20 0 -14 4 -24 9 -20 6 3 10 -3 10 -12 0 -10 1 -25 4 -33 4 -14 7 -23 25 -70
3 -8 4 -18 4 -22 -1 -5 2 -8 7 -8 6 0 8 -9 6 -20 -2 -11 0 -18 6 -15 5 4 9 -2
9 -12 0 -10 7 -27 15 -37 8 -10 12 -23 9 -27 -3 -5 0 -9 5 -9 6 0 11 -7 11
-16 0 -9 5 -12 12 -8 6 4 9 3 5 -2 -7 -12 27 -86 36 -77 4 3 7 -2 7 -13 0 -11
9 -26 19 -34 11 -7 18 -17 16 -21 -3 -3 4 -17 15 -29 11 -12 17 -27 14 -32 -3
-4 -2 -7 3 -6 4 2 9 -1 10 -5 1 -5 12 -17 24 -28 12 -10 20 -19 16 -19 -7 0
45 -60 109 -126 29 -29 49 -55 46 -58 -3 -3 2 -6 12 -6 9 0 14 -4 11 -10 -3
-5 -1 -10 5 -10 6 0 29 -18 50 -40 22 -23 43 -42 47 -43 4 -1 7 -6 5 -10 -1
-5 2 -6 7 -3 5 3 26 -10 47 -29 22 -19 45 -35 52 -35 6 0 12 -4 12 -9 0 -5 16
-16 36 -26 19 -9 38 -23 41 -32 5 -12 7 -12 14 -1 7 10 9 10 9 1 0 -7 7 -13
16 -13 8 0 12 -5 9 -10 -4 -6 -3 -10 2 -9 22 4 43 -2 38 -11 -3 -6 1 -10 10
-10 17 0 56 -20 66 -33 3 -5 9 -8 13 -8 22 3 36 0 32 -7 -3 -5 1 -9 9 -10 8
-1 22 -3 30 -4 8 -1 15 -5 15 -10 0 -4 12 -8 26 -8 14 0 23 -4 20 -8 -2 -4 7
-9 22 -10 14 -1 31 -7 36 -12 6 -6 27 -10 47 -10 21 0 41 -4 44 -10 3 -5 19
-10 36 -10 16 0 29 -4 29 -8 0 -4 10 -9 23 -9 70 -4 86 -7 82 -12 -4 -7 0 -8
105 -11 49 -2 68 -5 55 -11 -14 -5 -7 -6 20 -4 22 2 40 4 40 5 0 1 8 3 18 5 9
2 15 -1 11 -6 -7 -12 7 -11 26 0 8 6 19 7 25 3 18 -11 39 -11 52 0 9 7 13 7
13 -1 0 -6 5 -11 11 -11 5 0 8 4 5 8 -3 5 16 10 42 10 83 4 107 6 112 14 3 4
29 8 58 9 28 1 50 5 48 8 -2 3 12 7 32 9 20 1 41 7 46 12 6 6 28 10 50 10 30
0 37 3 26 10 -11 7 -5 10 23 10 20 0 37 4 37 10 0 5 3 9 8 9 20 -3 43 2 38 9
-2 4 5 9 17 9 23 2 29 4 130 53 37 18 67 37 67 42 0 5 4 7 9 3 5 -3 17 2 25
11 9 8 16 12 16 7 0 -4 5 0 11 10 5 9 17 17 24 17 8 0 15 5 15 10 0 6 9 10 21
10 11 0 17 5 14 10 -3 6 1 10 9 10 9 0 16 5 16 11 0 5 4 8 9 4 5 -3 16 4 24
15 7 11 17 17 20 13 4 -3 7 -1 7 5 0 7 7 12 17 12 9 0 14 3 10 6 -7 8 17 34
32 34 6 0 15 9 21 20 6 11 15 20 20 20 12 0 60 48 60 61 0 6 5 7 10 4 6 -3 10
2 10 11 0 10 3 15 6 11 7 -7 54 38 54 52 0 6 9 15 20 21 11 6 20 17 20 25 0 8
5 15 10 15 6 0 10 7 10 16 0 8 4 13 8 10 4 -3 19 13 32 35 14 21 28 39 32 39
5 0 8 7 8 15 0 9 9 25 20 37 11 12 20 31 20 42 0 10 3 17 6 13 10 -9 34 19 34
40 0 11 8 28 18 39 9 11 18 26 20 34 2 8 8 18 14 21 5 3 9 9 9 13 -3 24 0 36
9 31 6 -4 10 -3 9 2 -4 24 2 53 11 48 6 -4 10 7 10 25 0 21 4 29 12 24 6 -4 8
-3 5 3 -3 5 0 21 8 36 10 19 10 27 2 31 -9 3 -8 5 1 5 6 1 12 10 12 21 0 11 5
20 10 20 6 0 10 18 10 41 0 29 3 38 13 33 7 -5 6 0 -3 11 -9 11 -10 16 -2 11
9 -5 12 2 12 28 0 19 5 38 10 41 6 3 10 12 10 18 0 7 -4 6 -10 -3 -5 -8 -10
-10 -10 -4 0 5 4 14 9 20 5 5 11 27 14 50 2 23 8 47 12 54 6 9 4 11 -6 5 -12
-8 -12 -6 0 8 10 13 10 17 1 17 -9 0 -9 4 -2 13 12 14 14 219 2 212 -4 -2 -12
6 -19 18 -23 42 -85 58 -138 35 -37 -17 -53 -33 -53 -53 0 -9 -4 -13 -10 -10
-6 4 -10 -23 -10 -72 0 -49 -5 -84 -12 -92 -10 -11 -10 -13 0 -7 13 8 17 -10
4 -18 -4 -3 -9 -33 -10 -67 -1 -34 -6 -67 -12 -73 -5 -5 -10 -29 -10 -53 0
-42 -2 -50 -29 -102 -10 -19 -10 -22 1 -16 10 6 11 5 1 -6 -7 -7 -13 -24 -13
-37 0 -15 -4 -21 -12 -16 -7 5 -9 2 -5 -8 3 -9 -3 -32 -13 -51 -10 -19 -16
-38 -13 -41 4 -3 1 -6 -5 -6 -7 0 -12 -9 -12 -20 0 -11 -3 -20 -7 -20 -10 0
-33 -49 -33 -68 0 -7 -4 -10 -10 -7 -5 3 -10 -2 -10 -12 0 -10 -14 -34 -30
-53 -16 -19 -30 -39 -30 -43 0 -5 -7 -15 -15 -24 -8 -8 -13 -19 -9 -24 3 -5 2
-8 -3 -7 -4 2 -9 -1 -10 -5 -1 -5 -11 -17 -23 -27 -12 -10 -22 -22 -23 -27 -1
-4 -5 -7 -10 -5 -4 1 -6 -4 -5 -10 2 -7 -3 -12 -10 -10 -8 1 -11 -2 -8 -7 7
-10 -31 -51 -46 -51 -5 0 -7 -3 -5 -7 6 -10 -19 -34 -27 -26 -3 4 -6 -1 -6
-11 0 -9 -4 -14 -10 -11 -5 3 -10 1 -10 -5 0 -6 -7 -18 -15 -26 -8 -9 -15 -13
-15 -10 0 3 -8 -2 -18 -11 -11 -10 -17 -22 -14 -27 3 -5 0 -6 -6 -2 -6 3 -17
-1 -25 -9 -9 -8 -21 -15 -27 -15 -6 0 -8 -4 -5 -10 3 -5 -1 -10 -10 -10 -10 0
-13 -5 -9 -12 4 -6 3 -8 -4 -4 -6 3 -18 -1 -26 -10 -9 -8 -16 -12 -16 -7 0 4
-5 0 -11 -9 -5 -10 -17 -18 -24 -18 -8 0 -15 -4 -15 -10 0 -5 -8 -10 -18 -10
-11 0 -27 -9 -37 -20 -42 -46 -44 -35 -46 263 0 155 -1 290 -1 300 1 11 -4 15
-11 11 -9 -5 -9 -4 -1 5 9 10 9 19 -2 39 -7 14 -11 29 -8 34 3 4 0 8 -5 8 -6
0 -11 9 -11 20 0 11 -5 20 -11 20 -5 0 -8 4 -4 9 3 5 -6 21 -19 34 -14 14 -22
28 -19 31 4 3 1 6 -6 6 -6 0 -23 11 -37 25 -14 14 -30 23 -35 20 -5 -4 -9 -1
-9 4 0 6 -8 11 -18 11 -10 0 -22 3 -26 7 -10 11 -38 12 -250 13 -130 1 -201
-2 -206 -9 -3 -6 -18 -12 -32 -13 -15 -1 -24 -6 -22 -10 3 -4 -4 -8 -16 -8
-12 0 -19 -3 -17 -7 5 -8 -23 -39 -33 -37 -3 1 -4 -1 -3 -5 1 -4 -3 -8 -10 -9
-57 -5 -82 -3 -85 6 -2 7 -8 10 -13 6 -5 -3 -9 -1 -9 5 0 5 6 12 13 14 10 4
10 6 0 6 -7 1 -13 6 -13 12 0 5 5 7 10 4 6 -3 10 -1 10 4 0 6 -4 11 -8 11 -5
0 -9 19 -10 42 -1 23 -7 45 -13 49 -8 4 -7 8 2 12 10 4 10 6 2 6 -7 1 -13 10
-13 21 0 11 -4 20 -10 20 -5 0 -10 6 -10 13 0 17 -64 87 -79 87 -7 0 -9 6 -5
13 4 6 3 9 -1 4 -5 -4 -18 -1 -30 7 -12 8 -30 16 -41 18 -10 2 -21 6 -24 10
-3 4 -20 8 -38 10 -18 1 -32 6 -32 11 0 5 -8 3 -17 -4 -11 -10 -14 -10 -9 -1
10 16 -25 16 -43 0 -11 -11 -12 -10 -7 0 9 15 -29 13 -53 -2 -10 -6 -12 -5 -7
3 9 14 -30 11 -53 -3 -9 -6 -12 -5 -7 2 4 7 -5 11 -26 10 -59 -2 -117 6 -112
14 3 4 -2 8 -10 8 -16 0 -46 54 -49 89 -1 11 -5 21 -10 21 -6 0 -6 5 0 13 8
10 10 32 3 40 -1 1 -3 10 -5 20 -2 10 1 14 8 10 6 -4 8 0 4 10 -4 10 -1 17 5
17 6 0 9 3 5 6 -3 3 7 20 23 38 17 17 30 35 30 39 0 5 4 6 8 3 5 -3 15 7 23
22 8 15 24 37 37 50 12 13 20 28 17 33 -4 5 -1 9 5 9 6 0 9 4 5 9 -3 5 2 17
11 25 9 9 11 16 4 16 -7 0 -6 6 3 15 9 8 13 24 10 35 -3 11 0 20 6 20 6 0 10
3 10 8 -3 17 2 35 7 29 4 -3 18 2 32 13 13 11 28 17 33 14 5 -3 8 0 7 8 -2 7
2 12 7 11 10 -1 33 20 38 34 1 5 6 7 10 5 5 -1 6 2 3 7 -4 5 1 17 10 25 8 9
13 16 10 16 -3 0 0 12 6 28 12 31 18 133 7 126 -4 -2 -6 4 -4 13 2 10 4 18 6
18 1 0 3 33 5 74 2 41 8 77 14 81 6 4 12 16 13 28 0 11 4 19 8 16 4 -2 14 3
22 11 9 9 35 15 64 16 50 0 110 28 105 48 -1 6 2 11 8 11 5 0 10 7 10 16 0 8
3 13 8 11 9 -6 13 43 5 63 -8 18 -10 27 -12 41 0 5 -5 7 -11 4 -5 -3 -10 0
-10 7 0 27 -40 39 -123 37 -45 -1 -89 -5 -97 -10 -8 -4 -29 -13 -47 -20 -17
-7 -29 -18 -26 -23 4 -5 -1 -7 -10 -3 -12 4 -17 1 -17 -10 0 -9 -3 -14 -6 -11
-13 14 -94 -88 -97 -122 -1 -11 -5 -20 -9 -20 -4 0 -8 -14 -8 -31 0 -21 -4
-28 -12 -23 -8 5 -7 0 2 -11 9 -11 10 -16 3 -11 -10 5 -13 -8 -13 -57 0 -35
-3 -67 -7 -71 -4 -4 -8 -30 -9 -57 -1 -31 2 -45 7 -37 6 9 8 6 6 -9 -3 -24
-13 -37 -28 -39 -5 -1 -10 -3 -11 -4 -2 -1 -12 -4 -23 -5 -38 -5 -50 -10 -67
-29 -10 -10 -18 -15 -18 -10 0 5 -7 -4 -15 -20 -9 -16 -15 -55 -15 -93 0 -41
-4 -62 -10 -58 -6 4 -10 3 -9 -2 5 -26 -2 -63 -11 -58 -5 3 -10 -1 -10 -9 0
-8 -8 -20 -18 -25 -9 -6 -13 -11 -8 -11 4 0 -6 -13 -23 -29 -17 -16 -31 -35
-31 -42 0 -7 -3 -10 -6 -6 -9 9 -34 -19 -34 -37 0 -9 -4 -16 -10 -16 -5 0 -10
-9 -10 -20 0 -11 -4 -20 -10 -20 -5 0 -10 -21 -10 -47 0 -29 -4 -43 -9 -35 -4
7 -7 -12 -7 -47 1 -33 5 -63 9 -67 4 -4 7 -24 7 -44 0 -21 6 -53 14 -71 7 -19
11 -40 8 -48 -3 -8 0 -11 7 -7 7 5 11 -1 11 -14 0 -12 5 -18 10 -15 6 3 10 -1
10 -9 0 -9 5 -16 10 -16 6 0 10 -7 10 -15 0 -7 8 -19 18 -24 9 -6 13 -11 7
-11 -5 0 2 -7 17 -15 16 -8 39 -21 53 -28 14 -8 22 -17 18 -20 -3 -4 8 -7 25
-7 17 0 34 -4 37 -10 3 -5 38 -10 76 -10 54 0 68 -3 63 -12 -6 -10 -4 -10 7
-2 19 15 145 18 154 5 3 -6 12 -11 18 -11 8 0 7 3 -2 9 -10 6 -3 9 22 8 22 -1
32 -4 24 -9 -8 -5 -4 -8 12 -8 26 0 50 -25 51 -52 0 -10 6 -18 13 -18 8 0 7
-4 -3 -10 -13 -8 -13 -13 -2 -31 8 -11 9 -18 3 -15 -5 4 -9 -2 -8 -13 0 -11 4
-18 8 -15 4 2 8 -4 8 -13 2 -53 6 -71 13 -67 4 3 8 0 8 -6 0 -6 7 -18 15 -27
8 -8 12 -19 9 -25 -4 -6 -2 -8 4 -4 6 3 17 -3 25 -14 7 -11 17 -17 20 -13 4 3
7 1 7 -5 0 -7 8 -12 18 -12 9 0 28 -9 42 -20 19 -15 28 -16 39 -7 12 9 13 9 7
-1 -8 -13 21 -16 122 -13 52 2 107 24 139 57 8 8 18 12 23 9 4 -3 10 4 13 15
6 22 9 22 231 20 122 -1 128 -3 153 -47 16 -28 19 -708 3 -698 -5 3 -10 1 -10
-4 0 -6 -18 -11 -40 -11 -22 0 -40 -4 -40 -8 0 -4 -10 -9 -22 -10 -36 -3 -52
-7 -63 -14 -5 -3 -41 -6 -80 -7 -42 -1 -72 -6 -77 -14 -6 -9 -8 -9 -8 2 0 11
-3 11 -15 1 -10 -8 -19 -9 -27 -3 -13 10 -84 9 -126 -1 -13 -3 -20 -1 -17 5 5
7 -48 14 -102 12 -7 -1 -10 3 -7 8 4 8 -26 14 -49 10 -5 -1 -6 3 -2 9 3 6 -3
10 -15 10 -12 0 -18 5 -15 10 3 6 -1 10 -10 10 -9 0 -14 3 -12 8 6 9 -19 33
-27 25 -6 -6 -10 21 -7 40 1 5 -3 6 -9 2 -6 -4 -10 4 -10 19 0 14 -4 26 -8 26
-4 0 -9 82 -10 182 -2 126 -6 186 -15 197 -10 12 -9 13 3 6 12 -6 13 -5 3 6
-7 7 -13 24 -13 38 0 21 -2 23 -10 11 -8 -12 -10 -10 -10 9 0 15 -15 39 -40
63 -23 21 -37 38 -33 38 4 0 -17 12 -47 26 -30 14 -62 30 -71 34 -10 5 -21 4
-29 -3 -9 -8 -11 -8 -7 -1 5 8 -53 12 -211 14 -259 2 -242 1 -236 12 3 4 -8 8
-25 8 -16 0 -33 5 -36 10 -3 6 -20 10 -36 10 -19 0 -28 4 -24 11 4 6 1 10 -6
8 -29 -3 -50 1 -44 11 5 9 -8 14 -19 8 -2 -2 -17 11 -33 27 -15 17 -32 31 -36
33 -4 1 -7 5 -6 8 0 3 -9 14 -20 23 -12 10 -21 24 -21 30 0 7 -4 9 -10 6 -5
-3 -10 3 -10 14 0 12 -4 21 -10 21 -5 0 -10 9 -10 21 0 12 -4 17 -11 14 -6 -4
-10 -1 -8 6 4 34 -2 70 -11 64 -6 -4 -10 -3 -9 2 5 27 -2 103 -9 99 -4 -3 -9
34 -11 82 -1 48 -7 92 -13 99 -5 7 -6 18 -2 25 10 16 13 99 3 93 -8 -6 -7 15
3 30 3 6 6 33 7 60 1 59 5 82 14 91 4 4 7 12 7 18 0 6 -5 4 -10 -4 -6 -9 -10
-10 -10 -3 0 6 5 15 10 18 6 3 10 26 10 50 0 24 5 47 10 50 6 3 10 19 10 36 0
16 4 29 8 29 4 0 9 12 10 27 1 15 7 30 12 33 5 3 11 18 12 33 1 15 6 27 11 27
4 0 6 4 2 9 -3 5 2 16 10 25 9 8 16 18 15 21 -1 25 1 35 8 31 4 -2 9 7 10 20
1 14 11 34 22 46 11 12 20 28 20 35 0 7 5 13 12 13 6 0 8 3 5 6 -3 4 2 18 13
32 11 13 17 29 13 35 -3 6 -1 7 5 3 7 -4 12 -1 12 8 0 9 5 16 12 16 6 0 8 3 5
7 -4 3 2 13 13 20 11 8 18 19 15 24 -4 5 -1 9 4 9 6 0 11 7 11 16 0 8 5 12 10
9 6 -3 10 1 10 9 0 8 8 20 18 25 9 6 14 11 10 11 -11 0 158 166 177 173 8 4
15 11 15 17 0 6 4 9 8 6 5 -3 15 4 22 15 8 10 20 19 28 19 7 0 10 5 7 10 -3 6
3 10 15 10 12 0 19 4 16 8 -3 5 10 15 29 22 19 7 32 17 29 22 -3 4 4 8 16 8
12 0 18 5 15 10 -3 6 3 10 14 10 12 0 21 3 21 8 0 8 49 32 67 32 7 0 13 5 13
11 0 5 4 8 9 4 5 -3 16 2 24 10 9 8 23 15 31 15 9 0 24 4 34 9 81 41 108 51
136 51 18 0 36 4 42 10 5 5 23 11 39 12 17 1 35 5 40 9 6 4 36 9 67 10 32 1
55 6 52 10 -2 4 15 7 38 7 129 0 179 3 174 10 -3 5 1 9 9 10 8 1 21 3 28 4 13
1 43 28 31 28 -3 0 0 7 7 17 17 20 21 96 5 86 -6 -4 -4 2 4 12 9 11 10 16 3
11 -8 -4 -13 -2 -13 6 0 20 -48 52 -86 59 -19 3 -35 5 -37 3z m1520 -1936 c-3
-8 -6 -5 -6 6 -1 11 2 17 5 13 3 -3 4 -12 1 -19z m-2601 -739 c8 -14 26 -11
18 4 -6 10 -4 10 7 0 9 -9 48 -13 119 -13 71 0 110 -4 119 -12 11 -10 13 -10
7 -1 -6 10 12 13 77 12 70 -1 88 -4 110 -22 l26 -22 2 -187 c1 -103 6 -185 11
-182 4 3 8 -1 8 -10 0 -8 -7 -13 -17 -11 -10 2 -18 4 -18 5 0 1 -8 3 -17 5
-10 2 -25 10 -34 19 -8 9 -20 14 -25 11 -5 -4 -9 -1 -9 4 0 6 -9 11 -20 11
-11 0 -20 4 -20 8 0 5 -12 15 -27 23 -16 8 -34 20 -41 27 -8 7 -18 9 -24 6 -7
-4 -8 -2 -4 4 4 7 1 12 -6 12 -8 0 -20 9 -28 19 -7 11 -17 18 -21 15 -4 -2
-15 6 -23 18 -9 12 -16 19 -16 14 0 -4 -13 6 -29 23 -16 17 -35 31 -42 31 -7
0 -9 3 -6 6 7 7 -42 54 -56 54 -5 0 -5 5 -2 10 3 6 -2 10 -11 10 -10 0 -15 2
-12 5 3 3 -17 28 -43 56 -27 28 -47 54 -45 58 6 9 85 1 92 -10z"/>
<path d="M1028 1003 c7 -3 16 -2 19 1 4 3 -2 6 -13 5 -11 0 -14 -3 -6 -6z"/>
<path d="M2938 3570 c-1 -5 -20 -10 -40 -12 -20 -1 -34 -6 -32 -10 3 -4 -4 -8
-16 -8 -12 0 -28 -7 -37 -15 -8 -8 -19 -13 -24 -10 -5 4 -9 1 -9 -4 0 -6 -7
-11 -16 -11 -8 0 -13 -4 -10 -8 2 -4 -9 -14 -25 -21 -16 -7 -27 -16 -24 -20 2
-5 -6 -17 -18 -28 -28 -25 -69 -73 -62 -73 3 0 -4 -16 -15 -37 -10 -20 -16
-41 -13 -46 3 -6 1 -7 -5 -3 -9 5 -12 -7 -13 -41 0 -36 -3 -43 -9 -28 -5 12
-8 -23 -8 -95 1 -63 5 -119 9 -125 4 -5 9 -19 11 -30 1 -11 6 -23 10 -26 5 -3
9 -17 10 -31 1 -15 6 -24 10 -22 8 5 12 -18 9 -45 -2 -7 2 -10 8 -6 10 5 16
-22 12 -48 -1 -5 3 -6 9 -2 6 4 10 -5 10 -20 0 -17 4 -24 12 -19 7 5 9 2 5 -8
-3 -9 2 -31 12 -49 10 -19 16 -40 13 -48 -3 -8 0 -11 7 -7 7 5 11 -1 11 -13 0
-12 5 -21 11 -21 5 0 8 -4 5 -8 -3 -5 2 -21 10 -36 7 -16 14 -36 14 -46 0 -10
5 -20 10 -22 6 -2 12 -13 13 -25 0 -12 4 -20 7 -18 4 2 13 -18 20 -45 7 -27
17 -47 22 -44 7 5 13 -27 9 -49 -1 -5 3 -6 9 -2 6 4 10 -5 10 -20 0 -14 4 -24
8 -21 8 5 38 -82 34 -97 -1 -5 2 -6 8 -2 9 5 15 -15 11 -38 -1 -5 3 -6 9 -2 5
3 10 -1 10 -9 0 -9 9 -16 21 -16 11 0 17 -4 14 -10 -4 -6 15 -10 50 -10 39 0
54 3 49 11 -4 7 -1 10 6 7 17 -5 60 35 60 56 0 10 4 15 8 12 5 -3 9 1 10 9 1
8 3 22 4 30 1 8 5 15 10 15 4 0 8 9 8 20 0 11 5 20 12 20 6 0 9 3 5 6 -3 3 3
22 13 42 11 19 17 39 14 44 -3 4 0 8 5 8 6 0 11 9 11 20 0 11 5 20 12 20 6 0
9 3 5 6 -3 3 3 22 13 42 11 19 17 39 14 44 -3 4 0 8 5 8 6 0 11 9 11 20 0 11
5 20 10 20 6 0 10 14 10 30 0 17 5 30 10 30 6 0 10 9 10 21 0 11 4 18 8 15 7
-4 11 9 14 51 1 7 5 10 10 7 4 -3 8 4 8 14 0 11 7 32 14 48 8 15 12 32 9 37
-3 6 -1 7 5 3 8 -5 12 2 12 18 0 14 5 26 10 26 6 0 10 9 10 19 0 11 5 23 10
26 6 3 10 17 10 31 0 14 7 36 16 49 9 14 13 25 9 25 -4 0 -3 6 3 13 15 19 16
176 0 195 -10 12 -10 14 0 8 15 -9 17 15 2 30 -5 5 -11 22 -12 36 -1 15 -6 24
-10 22 -4 -3 -8 1 -8 9 0 16 -50 117 -50 102 0 -5 -6 1 -13 15 -8 14 -19 24
-25 22 -7 -1 -11 1 -11 5 3 21 -3 33 -17 33 -8 0 -12 5 -9 10 4 6 3 10 -2 9
-18 -3 -36 1 -30 8 8 7 -39 33 -60 33 -8 0 -11 5 -8 10 6 10 -3 13 -37 13 -10
0 -15 4 -12 8 3 5 -6 9 -20 9 -14 0 -26 6 -26 13 0 7 -3 8 -8 2 -9 -13 -35
-18 -27 -5 4 6 -17 10 -59 10 -42 0 -66 -4 -69 -12 -4 -10 -6 -10 -6 0 -1 14
-28 17 -33 2z"/>
</g>
</svg>
