<?xml version="1.0" standalone="no"?>
<!DOCTYPE svg PUBLIC "-//W3C//DTD SVG 20010904//EN"
 "http://www.w3.org/TR/2001/REC-SVG-20010904/DTD/svg10.dtd">
<svg version="1.0" xmlns="http://www.w3.org/2000/svg"
 width="512.000000pt" height="512.000000pt" viewBox="0 0 512.000000 512.000000"
 preserveAspectRatio="xMidYMid meet">
<metadata>
Created by potrace 1.14, written by Peter Selinger 2001-2017
</metadata>
<g transform="translate(0.000000,512.000000) scale(0.100000,-0.100000)"
fill="#000000" stroke="none">
<path d="M2387 4634 c-1 -1 -31 -4 -67 -8 -36 -3 -76 -8 -90 -11 -13 -2 -41
-7 -62 -10 -21 -3 -95 -22 -165 -41 -343 -94 -660 -279 -913 -533 -62 -62
-164 -179 -198 -226 -159 -221 -264 -432 -331 -669 -22 -78 -46 -181 -42 -181
0 0 -4 -18 -9 -40 -25 -111 -35 -443 -17 -599 17 -150 68 -358 124 -501 281
-717 904 -1209 1673 -1320 25 -4 135 -8 245 -10 228 -3 367 13 561 65 760 203
1351 830 1503 1595 27 138 30 161 37 313 6 130 6 133 -19 171 -39 59 -98 73
-168 41 -42 -19 -61 -63 -65 -148 -6 -133 -15 -214 -35 -319 -20 -103 -82
-308 -101 -331 -6 -6 -8 -12 -5 -12 13 0 -106 -221 -169 -316 -115 -172 -249
-313 -421 -442 -100 -75 -269 -179 -278 -170 -3 2 -5 164 -5 359 -1 389 -7
444 -59 546 -82 164 -246 266 -421 265 -130 0 -244 -50 -361 -158 -25 -23 -65
-52 -87 -63 -35 -18 -45 -19 -69 -9 -36 16 -48 29 -148 163 -190 254 -308 329
-531 340 -57 3 -109 18 -176 51 -45 23 -108 80 -108 98 0 5 -6 17 -13 25 -49
58 -62 183 -27 256 54 111 149 167 322 191 62 8 144 58 185 112 61 81 81 218
53 377 -25 142 -16 218 28 251 32 24 100 32 192 22 53 -6 85 4 122 39 49 46
45 133 -9 179 -39 34 -63 39 -193 38 -95 0 -125 -4 -173 -23 -190 -74 -270
-250 -227 -496 17 -97 20 -208 5 -228 -11 -16 -22 -19 -110 -33 -314 -49 -535
-361 -460 -648 29 -111 95 -226 171 -301 93 -91 262 -157 425 -168 41 -3 85
-13 113 -27 55 -26 148 -125 244 -260 117 -163 221 -226 359 -218 93 6 172 44
271 131 39 36 94 73 121 85 119 49 241 -10 287 -140 12 -35 15 -116 17 -456 1
-226 1 -412 0 -412 0 0 -43 -11 -95 -25 -204 -54 -410 -71 -623 -52 -103 10
-208 27 -218 37 -5 4 -4 25 2 46 28 109 37 323 17 404 -48 192 -167 344 -331
420 -102 47 -173 58 -363 57 -159 -1 -183 1 -237 21 -108 40 -174 90 -355 272
l-125 125 -13 70 c-7 39 -15 83 -18 99 -22 124 -22 418 1 535 2 10 6 36 9 57
12 77 58 239 93 328 177 451 504 799 940 1003 138 64 357 130 488 147 83 11
152 17 232 21 117 5 153 30 168 118 8 39 -19 94 -57 117 -28 18 -47 20 -136
18 -56 -1 -103 -3 -105 -4z m-1153 -3164 c92 -20 122 -23 221 -21 55 1 114 3
130 5 85 7 193 -35 262 -103 73 -70 104 -151 104 -266 -1 -44 -3 -89 -5 -100
-2 -11 -6 -38 -10 -60 -12 -66 -16 -74 -34 -68 -9 3 -71 31 -137 63 -279 134
-494 316 -699 592 l-28 38 74 -35 c42 -19 96 -39 122 -45z"/>
<path d="M3565 4514 c-159 -42 -291 -147 -360 -287 -42 -85 -45 -96 -52 -208
-6 -97 6 -154 62 -284 19 -44 116 -271 215 -505 100 -234 187 -438 194 -455 8
-16 24 -52 36 -79 l22 -49 13 29 c8 16 124 289 260 607 245 575 276 660 270
749 -10 147 -62 260 -164 356 -127 120 -326 170 -496 126z"/>
</g>
</svg>
