<svg width="1390" height="543" viewBox="0 0 1390 543" fill="none" xmlns="http://www.w3.org/2000/svg">
    <path d="M2.5 -76C92 83 275.228 281.874 553.035 207.295C732.18 159.202 924.685 2.64413 885.212 252.84C827.208 620.5 1410.5 624.5 1481 333"
          stroke="white" stroke-width="3.5" stroke-linecap="round" stroke-dasharray="7 9"/>
    <circle cx="890.072" cy="371.258" r="7.28725" fill="white"/>
    <circle cx="854.85" cy="118.633" r="7.28725" fill="white"/>
    <circle cx="437.022" cy="223.06" r="7.28725" fill="white"/>
    <path d="M858.662 101.057C856.369 98.0516 854.331 94.8595 852.569 91.5143C849.927 86.4912 847.066 79.2426 848.37 73.2059C849.729 66.9004 854.754 62.0353 861.1 60.8808C867.446 59.7262 873.863 62.5099 877.355 67.9328C879.655 71.4831 880.44 75.8061 879.533 79.9382C878.229 85.9748 872.631 91.3961 868.151 94.8804C865.166 97.2003 861.992 99.2663 858.662 101.057ZM865.394 69.8943C863.009 69.3789 860.529 70.1754 858.89 71.9838C857.251 73.7922 856.701 76.3377 857.447 78.6615C858.194 80.9853 860.123 82.7344 862.509 83.2498C866.197 84.0465 869.833 81.7027 870.63 78.0146C871.426 74.3266 869.082 70.691 865.394 69.8943Z"
          fill="white"/>
    <path d="M866.493 373.105C870.395 375.137 871.911 379.949 869.879 383.852L855.922 410.653C853.89 414.556 849.079 416.073 845.176 414.041L818.374 400.084C814.472 398.052 812.956 393.24 814.988 389.337L828.945 362.536C830.977 358.633 835.788 357.116 839.691 359.148L866.493 373.105ZM828.466 377.333L832.162 379.258L824.835 393.33L832.964 397.563L837.394 389.057L843.306 392.136L838.877 400.642L847.008 404.876L854.335 390.804L858.03 392.728L848.947 374.087L828.466 377.333Z"
          fill="white"/>
    <path d="M432.755 148.575C436.613 145.017 442.624 145.26 446.182 149.117L464.59 169.072C468.148 172.929 467.906 178.941 464.048 182.499L444.094 200.906C440.236 204.465 434.225 204.222 430.667 200.365L412.259 180.41C408.701 176.553 408.943 170.541 412.801 166.983L432.755 148.575ZM438.643 156.744C437.71 156.712 436.902 157.457 436.859 158.39C436.816 159.323 437.553 160.122 438.486 160.154L440.16 160.213L439.908 160.445C436.609 163.489 435.407 167.894 436.269 171.936C432.31 170.751 427.822 171.594 424.54 174.622L423.815 175.29L423.893 173.616C423.935 172.684 423.198 171.885 422.265 171.852C421.332 171.82 420.523 172.565 420.481 173.498L420.215 179.289C420.172 180.222 420.909 181.021 421.842 181.054L427.636 181.255C428.119 181.272 428.547 181.094 428.866 180.799C429.186 180.504 429.399 180.092 429.421 179.609C429.464 178.677 428.727 177.878 427.793 177.845L426.119 177.787L426.826 177.135C430.361 173.874 435.865 174.065 439.09 177.56L445.432 184.436C446.061 185.118 447.156 185.156 447.846 184.52C448.536 183.883 448.586 182.789 447.956 182.107L441.614 175.232C438.39 171.736 438.66 166.219 442.194 162.958L442.447 162.725L442.37 164.398C442.328 165.331 443.065 166.13 443.998 166.163C444.48 166.179 444.907 166.001 445.227 165.706C445.547 165.411 445.759 165 445.782 164.517L446.047 158.725C446.057 158.5 446.019 158.29 445.948 158.078C445.806 157.654 445.484 157.304 445.075 157.097C444.869 157.009 444.662 156.953 444.437 156.945L438.643 156.744Z"
          fill="white"/>
</svg>