<svg width="24" height="24" viewBox="0 0 24 24" fill="none" xmlns="http://www.w3.org/2000/svg">
<path d="M21.3005 7.58005H15.7205C15.3305 7.58005 15.0205 7.27005 15.0205 6.88005C15.0205 6.49005 15.3305 6.18005 15.7205 6.18005H21.3005C21.6905 6.18005 22.0005 6.49005 22.0005 6.88005C22.0005 7.27005 21.6905 7.58005 21.3005 7.58005Z" fill="#303030"/>
<path d="M6.42098 7.58005H2.70098C2.31098 7.58005 2.00098 7.27005 2.00098 6.88005C2.00098 6.49005 2.31098 6.18005 2.70098 6.18005H6.42098C6.81098 6.18005 7.12098 6.49005 7.12098 6.88005C7.12098 7.27005 6.80098 7.58005 6.42098 7.58005Z" fill="#303030"/>
<path d="M10.1395 10.8299C12.321 10.8299 14.0895 9.06146 14.0895 6.87993C14.0895 4.69841 12.321 2.92993 10.1395 2.92993C7.95793 2.92993 6.18945 4.69841 6.18945 6.87993C6.18945 9.06146 7.95793 10.8299 10.1395 10.8299Z" fill="#303030"/>
<path d="M21.2989 17.8102H17.5789C17.1889 17.8102 16.8789 17.5002 16.8789 17.1102C16.8789 16.7202 17.1889 16.4102 17.5789 16.4102H21.2989C21.6889 16.4102 21.9989 16.7202 21.9989 17.1102C21.9989 17.5002 21.6889 17.8102 21.2989 17.8102Z" fill="#303030"/>
<path d="M8.28098 17.8102H2.70098C2.31098 17.8102 2.00098 17.5002 2.00098 17.1102C2.00098 16.7202 2.31098 16.4102 2.70098 16.4102H8.28098C8.67098 16.4102 8.98098 16.7202 8.98098 17.1102C8.98098 17.5002 8.66098 17.8102 8.28098 17.8102Z" fill="#303030"/>
<path d="M13.8611 21.0702C16.0427 21.0702 17.8111 19.3017 17.8111 17.1202C17.8111 14.9386 16.0427 13.1702 13.8611 13.1702C11.6796 13.1702 9.91113 14.9386 9.91113 17.1202C9.91113 19.3017 11.6796 21.0702 13.8611 21.0702Z" fill="#303030"/>
</svg>
